:SAMPLES-PER-SECOND 30
:FULLY-SPECIFIED
:DEGREES
259
root  21.0309 39.7607 -24.2986 -0.682434 34.3258 4.28168
RightUpLeg  4.5152 -11.5618 -3.04327
RightLeg  17.1146 -1.74316 2.21451
RightFoot  -17.385 -0.39829 -5.31415
RightToes  0.00048216 0.542163 -0.142577
Spine  13.6489 0.758358 1.60351
Spine1  8.8425 1.51495 -1.58377
HEad  23.9521 -12.8477 -3.13095
LeftShoulder1  6.55664 -9.94086 -42.346
LeftArm  -19.6524 28.9367 -29.9278
LeftForeArm  23.6901 -40.0312 -7.88842
LeftHand  -0.25398 0.0180481 5.50724
RightShoulder  5.31096 8.92816 36.7201
RightArm  6.63718 -20.1173 32.7216
RightForeArm  -11.2901 20.5271 5.89409
RightHand  -1.98844 4.59099 -23.1791
LeftUpLeg  -19.6591 15.958 -6.40744
LeftLeg  21.7276 3.68935 1.94237
LeftFoot  0.898654 0.62749 -5.9083
LeftToes  1.06245e-005 4.65855e-005 -8.18504e-006
260
root  20.648 39.7547 -23.7002 -0.690002 30.1994 4.08679
RightUpLeg  4.94377 -9.86797 -2.07895
RightLeg  16.1237 0.298896 2.87811
RightFoot  -16.9982 -0.425974 -6.29125
RightToes  0.00048216 0.542163 -0.142577
Spine  12.686 0.929528 2.20011
Spine1  9.23085 1.80891 -1.93265
HEad  24.3068 -12.7682 -3.88161
LeftShoulder1  6.56828 -9.93961 -42.4302
LeftArm  -19.5532 29.8297 -29.3919
LeftForeArm  23.179 -39.1404 -7.65337
LeftHand  -0.25398 0.0180481 5.50724
RightShoulder  5.26153 8.83952 36.6285
RightArm  4.15648 -19.0686 32.1902
RightForeArm  -10.3682 20.3204 5.83755
RightHand  -2.01985 4.80248 -23.0669
LeftUpLeg  -19.2606 14.3372 -9.48863
LeftLeg  19.3301 1.7552 1.05796
LeftFoot  0.601035 0.759891 -7.28928
LeftToes  1.06245e-005 4.65855e-005 -8.18504e-006
261
root  20.2779 39.7145 -23.0437 -0.860229 25.5333 3.61469
RightUpLeg  5.60059 -8.61583 -1.03355
RightLeg  15.2151 3.25324 3.59823
RightFoot  -16.6366 -0.453843 -7.37637
RightToes  0.00048216 0.542163 -0.142577
Spine  11.8213 1.18985 3.00757
Spine1  9.56063 2.28178 -2.54173
HEad  24.5074 -12.2116 -4.59156
LeftShoulder1  6.58796 -9.96728 -42.4729
LeftArm  -19.0421 30.8906 -28.827
LeftForeArm  23.2415 -37.3483 -7.13006
LeftHand  -0.25398 0.0180481 5.50724
RightShoulder  5.15092 8.6374 36.4328
RightArm  1.30086 -18.256 32.1125
RightForeArm  -11.3496 21.3597 5.63035
RightHand  -2.07348 5.01487 -23.1955
LeftUpLeg  -18.4939 11.43 -11.5215
LeftLeg  15.2672 -0.57267 -0.0958929
LeftFoot  0.980413 0.690591 -6.46937
LeftToes  1.06245e-005 4.65855e-005 -8.18504e-006
262
root  19.8904 39.6394 -22.3181 -1.41315 20.1737 3.1394
RightUpLeg  6.68789 -7.90868 -0.19069
RightLeg  14.9016 6.70562 4.20334
RightFoot  -16.5201 -0.515288 -8.89987
RightToes  0.00048216 0.542163 -0.142577
Spine  11.5381 1.68605 3.32693
Spine1  9.67568 2.88731 -2.82598
HEad  24.6035 -10.9951 -5.26948
LeftShoulder1  6.57684 -9.93044 -42.5201
LeftArm  -18.2214 32.0744 -28.3498
LeftForeArm  23.1824 -34.8517 -6.4527
LeftHand  -0.25398 0.0180481 5.50724
RightShoulder  5.08676 8.49321 36.4085
RightArm  -1.27747 -17.4676 32.0658
RightForeArm  -13.3659 23.3688 5.68358
RightHand  -2.12485 5.11259 -23.5373
LeftUpLeg  -17.2308 6.33667 -11.5885
LeftLeg  10.7275 0.0977325 -1.55967
LeftFoot  2.12571 0.748701 -6.41776
LeftToes  1.06245e-005 4.65855e-005 -8.18504e-006
263
root  19.4615 39.498 -21.4915 -2.27704 14.763 2.78595
RightUpLeg  8.05385 -7.73482 0.385139
RightLeg  15.6142 10.2416 4.84572
RightFoot  -16.748 -0.592471 -10.1241
RightToes  0.00048216 0.542163 -0.142577
Spine  11.4163 2.17897 2.84379
Spine1  10.0764 3.30277 -2.54938
HEad  24.467 -9.03739 -5.6675
LeftShoulder1  6.55797 -9.8784 -42.5652
LeftArm  -17.036 33.1185 -27.8995
LeftForeArm  22.4663 -31.7203 -5.69951
LeftHand  -0.25398 0.0180481 5.50724
RightShoulder  5.10488 8.50321 36.5209
RightArm  -3.75138 -16.4368 32.2873
RightForeArm  -13.87 25.6222 6.17367
RightHand  -2.15184 5.17117 -23.6985
LeftUpLeg  -15.8135 2.04839 -10.7127
LeftLeg  7.16935 2.8444 -3.22386
LeftFoot  3.15883 1.24401 -9.89658
LeftToes  1.06245e-005 4.65855e-005 -8.18504e-006
264
root  19.0013 39.2865 -20.5501 -3.05298 9.82321 2.37384
RightUpLeg  9.40995 -7.94532 0.888945
RightLeg  17.0209 13.8289 5.83475
RightFoot  -17.0937 -0.652261 -10.6524
RightToes  0.00048216 0.542163 -0.142577
Spine  10.6252 2.40259 2.2519
Spine1  11.1218 3.53063 -2.48143
HEad  24.3227 -6.64157 -5.50864
LeftShoulder1  6.53684 -9.89616 -42.3592
LeftArm  -15.2555 34.0162 -27.4389
LeftForeArm  21.0317 -28.169 -4.93863
LeftHand  -0.25398 0.0180481 5.50724
RightShoulder  5.1168 8.56166 36.4166
RightArm  -5.3304 -15.6141 33.3163
RightForeArm  -12.7297 28.0024 6.69753
RightHand  -2.17418 5.2732 -23.7165
LeftUpLeg  -14.5566 1.65587 -10.4897
LeftLeg  5.45255 5.01467 -4.44642
LeftFoot  3.95616 1.56348 -11.8213
LeftToes  1.06245e-005 4.65855e-005 -8.18504e-006
265
root  18.5249 39.0685 -19.5382 -3.55188 5.20857 1.85437
RightUpLeg  10.7708 -8.95703 1.04047
RightLeg  18.6308 17.4651 7.18042
RightFoot  -17.4541 -0.701981 -10.9175
RightToes  0.00048216 0.542163 -0.142577
Spine  9.44904 2.42705 1.76103
Spine1  12.0671 3.73233 -2.94499
HEad  24.6518 -4.09529 -4.85927
LeftShoulder1  6.49144 -9.89876 -42.0356
LeftArm  -13.0651 35.0597 -26.7638
LeftForeArm  19.4408 -24.6723 -4.25912
LeftHand  -0.25398 0.0180481 5.50724
RightShoulder  5.09321 8.57754 36.1723
RightArm  -5.22697 -15.5251 34.5867
RightForeArm  -11.1174 30.6809 7.29623
RightHand  -2.20963 5.36396 -23.8953
LeftUpLeg  -13.9073 2.70532 -10.679
LeftLeg  5.85543 7.77669 -4.66722
LeftFoot  4.84254 0.673068 -4.98006
LeftToes  1.06245e-005 4.65855e-005 -8.18504e-006
266
root  18.002 38.8945 -18.5175 -3.95001 0.819702 1.67096
RightUpLeg  11.7067 -11.3913 -0.110871
RightLeg  21.6996 21.4417 9.30173
RightFoot  -17.7853 -0.670253 -9.95082
RightToes  0.00048216 0.542163 -0.142577
Spine  8.8475 2.46073 0.216412
Spine1  12.0157 3.72046 -2.92232
HEad  25.5085 -1.38327 -3.99373
LeftShoulder1  6.4433 -9.75155 -42.1979
LeftArm  -11.504 35.9917 -25.6585
LeftForeArm  18.4238 -21.2211 -3.79084
LeftHand  -0.25398 0.0180481 5.50724
RightShoulder  5.14406 8.6408 36.3652
RightArm  -3.35529 -15.7782 35.0113
RightForeArm  -9.36653 33.1773 7.87326
RightHand  -2.16131 5.13012 -23.8833
LeftUpLeg  -14.2263 4.94897 -11.2831
LeftLeg  8.56585 9.55417 -3.22026
LeftFoot  5.04686 -1.13179 7.69856
LeftToes  1.06245e-005 4.65855e-005 -8.18504e-006
267
root  17.4352 38.8269 -17.5882 -4.40436 -3.20396 2.25073
RightUpLeg  10.9314 -13.3662 -2.67175
RightLeg  28.0675 25.2981 13.7161
RightFoot  -16.1247 -0.30507 -4.39027
RightToes  0.00048216 0.542163 -0.142577
Spine  8.89516 2.58754 -2.91286
Spine1  11.2959 3.35947 -2.01104
HEad  26.4448 1.43943 -3.07333
LeftShoulder1  6.44197 -9.54952 -42.881
LeftArm  -11.7118 35.9258 -24.4627
LeftForeArm  18.03 -17.38 -3.70165
LeftHand  -0.25398 0.0180481 5.50724
RightShoulder  5.30265 8.80857 37.0566
RightArm  -1.37068 -15.5718 34.9438
RightForeArm  -6.32669 34.3658 8.04326
RightHand  -1.98915 4.54429 -23.2879
LeftUpLeg  -14.9647 9.30603 -12.1565
LeftLeg  12.326 8.64611 -0.767825
LeftFoot  3.98818 -2.09545 15.2767
LeftToes  1.06245e-005 4.65855e-005 -8.18504e-006
268
root  16.9009 38.8497 -16.825 -4.89948 -6.94365 3.60864
RightUpLeg  7.41301 -13.2836 -5.79399
RightLeg  37.6906 27.3473 20.7076
RightFoot  -10.0528 -0.263697 8.45116
RightToes  0.00048216 0.542163 -0.142577
Spine  9.17302 2.70948 -6.24624
Spine1  10.8379 3.08751 -1.79339
HEad  27.0558 4.04202 -2.28381
LeftShoulder1  6.49189 -9.53267 -43.2929
LeftArm  -12.9837 34.5635 -23.915
LeftForeArm  17.004 -13.6907 -3.64656
LeftHand  -0.25398 0.0180481 5.50724
RightShoulder  5.41397 8.95603 37.4294
RightArm  -0.921874 -14.9434 35.8867
RightForeArm  -2.57515 33.8112 7.68428
RightHand  -1.89827 4.27746 -22.8515
LeftUpLeg  -15.5606 13.7722 -12.7708
LeftLeg  15.7295 7.27246 1.0653
LeftFoot  2.05858 -1.70148 14.2173
LeftToes  1.06245e-005 4.65855e-005 -8.18504e-006
269
root  16.4683 38.8388 -16.2262 -5.55731 -10.6493 5.05762
RightUpLeg  1.93222 -12.2675 -8.4884
RightLeg  47.3453 24.8554 25.772
RightFoot  -1.49107 -2.15653 24.6816
RightToes  0.00048216 0.542163 -0.142577
Spine  9.82758 2.81644 -8.04552
Spine1  10.5848 3.22179 -3.36453
HEad  27.1739 6.21483 -2.0455
LeftShoulder1  6.53298 -9.70573 -42.981
LeftArm  -14.3523 32.6609 -24.2627
LeftForeArm  15.6813 -11.8562 -3.43133
LeftHand  -0.25398 0.0180481 5.50724
RightShoulder  5.36067 8.97855 36.9386
RightArm  -1.51581 -14.5973 37.9186
RightForeArm  -1.26331 32.5847 7.27621
RightHand  -2.00941 4.61882 -23.3472
LeftUpLeg  -15.4669 15.3664 -12.3958
LeftLeg  18.2664 8.97719 1.78585
LeftFoot  -0.041716 -1.0621 10.7353
LeftToes  1.06245e-005 4.65855e-005 -8.18504e-006
270
root  16.0993 38.9204 -15.6653 -6.336 -13.7475 5.57227
RightUpLeg  -3.48119 -11.4998 -9.80835
RightLeg  53.6888 17.9994 23.9989
RightFoot  4.22689 -4.51247 32.8179
RightToes  0.00048216 0.542163 -0.142577
Spine  11.0215 2.77485 -8.10323
Spine1  9.93148 3.30461 -4.97192
HEad  26.7074 8.01626 -2.59033
LeftShoulder1  6.53173 -9.8594 -42.4473
LeftArm  -15.6871 30.9573 -25.0579
LeftForeArm  15.7929 -13.2013 -3.21886
LeftHand  -0.25398 0.0180481 5.50724
RightShoulder  5.25663 8.95898 36.1932
RightArm  -1.39813 -14.8289 39.2174
RightForeArm  -3.85181 32.1203 7.29421
RightHand  -2.10611 4.85116 -23.9057
LeftUpLeg  -13.8702 13.3218 -10.5678
LeftLeg  18.9705 13.8576 1.83311
LeftFoot  -1.32664 -0.846024 9.741
LeftToes  1.06245e-005 4.65855e-005 -8.18504e-006
271
root  15.7145 39.263 -15.0454 -6.78058 -15.4009 4.87952
RightUpLeg  -7.9701 -11.657 -9.67049
RightLeg  57.1509 11.0195 17.3895
RightFoot  5.19727 -4.36185 29.542
RightToes  0.00048216 0.542163 -0.142577
Spine  12.1148 2.42978 -7.35408
Spine1  9.13857 2.84572 -4.65394
HEad  25.7337 9.39192 -3.47183
LeftShoulder1  6.51314 -9.89713 -42.1918
LeftArm  -16.8743 29.3704 -25.7328
LeftForeArm  17.5147 -17.5912 -3.30891
LeftHand  -0.25398 0.0180481 5.50724
RightShoulder  5.25037 8.99387 36.0289
RightArm  -0.318347 -15.3428 38.6303
RightForeArm  -7.2976 32.615 7.61207
RightHand  -1.97362 4.42169 -23.3774
LeftUpLeg  -10.8375 9.88821 -7.94174
LeftLeg  17.0416 18.5044 1.19203
LeftFoot  -1.37407 -0.845505 9.77023
LeftToes  1.06245e-005 4.65855e-005 -8.18504e-006
272
root  15.285 39.6486 -14.4162 -6.74615 -15.7794 3.84479
RightUpLeg  -11.8274 -11.8974 -8.95197
RightLeg  58.1449 6.06863 10.0628
RightFoot  4.00115 -2.96972 22.0191
RightToes  0.00048216 0.542163 -0.142577
Spine  12.5238 1.97861 -6.69585
Spine1  8.89486 2.13014 -3.23333
HEad  24.6358 10.1192 -3.99403
LeftShoulder1  6.48835 -9.88864 -42.0484
LeftArm  -18.1765 27.5875 -26.0473
LeftForeArm  19.9613 -24.0463 -4.08292
LeftHand  -0.25398 0.0180481 5.50724
RightShoulder  5.28454 9.01013 36.2424
RightArm  0.324686 -15.8605 37.2532
RightForeArm  -8.01521 32.9687 7.74553
RightHand  -1.78933 3.90209 -22.425
LeftUpLeg  -7.9723 7.91086 -5.74358
LeftLeg  14.4957 20.3204 0.181238
LeftFoot  -1.26523 -0.749446 8.56344
LeftToes  1.06245e-005 4.65855e-005 -8.18504e-006
